<?xml version="1.0" encoding="utf-8"?>
<!-- Generator: Adobe Illustrator 22.1.0, SVG Export Plug-In . SVG Version: 6.00 Build 0)  -->
<svg version="1.1" id="Layer_1" xmlns="http://www.w3.org/2000/svg" xmlns:xlink="http://www.w3.org/1999/xlink" x="0px" y="0px"
	 viewBox="0 0 349 149" style="enable-background:new 0 0 349 149;" xml:space="preserve">
<style type="text/css">
	.st0{fill:#FFFFFF;}
	.st1{fill:#A6A9AA;}
</style>
<path class="st0" d="M224.3,77c0,0-7.1-0.4-3.3,11.5l3.3,8.5c0,0-1.6,4.3,4.4,9.5c0,0,4.8,17.6,11,23.2c0,0,4.7,10.7,6,12
	c0,0,2.8,2.5,6.4,6.4c2.9-0.5,18,0.3,27.6-0.2c0.2-0.8,0.4-1.7,0.4-2.4c0,0,0.2-2.3,1.1-2.4c0.9-0.1,5.4-9.2,5.2-11.7
	c0,0,9.7-16,9.9-21.2c0,0,2.3-6.3,2.5-7.1c0,0,4.6-2.8,3.8-8.1c0,0,2.3-11.3,2.1-12.1s1.1-9.1-3.7-8.4l-0.6-7.2
	c0,0-5.6-5.6-4.2-13.8c0,0-2.6-8.8-3.2-9c-0.6-0.2-2.4-0.2-3.6,0.2c-1.2,0.4-7.6,2.1-9.6-1.7s-6.7-11.2-14.4-6.1c0,0-2,5.8-5.6,4.2
	c0,0-12.8,2-19.4-3c0,0-7.4-0.8-8,10l-1,10.4c0,0-5.1,7.4-6.5,6.8C225.1,65.3,224.7,75.1,224.3,77z"/>
<path d="M228.1,106.8c-0.2-0.1-5.4-3.5-5.1-10l-2.3-6.6c-0.3-0.8-3.4-8.7-1-12.3c0.5-0.8,1.6-1.7,3.5-1.8l0,1.7c-1,0-1.7,0.3-2.1,1
	c-1.6,2.4,0.3,8.6,1.2,10.7l2.5,7l0,0.2c-0.4,5.6,3.6,7.8,3.7,7.8L228.1,106.8z"/>
<path d="M298.5,105.1l-1-1.4c0.2-0.1,4.7-3.6,3.9-9.1l0-0.2l1.5-7c0.6-2.4,1.9-9,0.2-11.1c-0.4-0.4-0.9-0.6-1.5-0.6l-0.1-1.7
	c1.2-0.1,2.3,0.3,3,1.2c2.6,3.2,0.4,11.7,0.2,12.6l-1.5,6.7C303.9,101,298.7,105,298.5,105.1z"/>
<path d="M301.7,67.8c0,0,3.7-6.1,4-7.5c0,0,1.3-3.7,0.3-7.6c0,0,1.1-1.5,0.4-5.3c0,0-0.5-6.3-1-6.6c0,0-2-6.5-4.6-8.1
	c0,0-1.7-1.5-1.7-2c0,0-4.4-11-16.7-12.2c0,0-22-9.7-37.7,0.8c0,0-8.2,1.1-10,3.9c0,0-3.6,0.1-4.8,2l-3.1,1.8c0,0-6.3,0.6-6.2,8.5
	c0,0-0.3,4.7,0.1,5.6c0,0-1.1,2.6-1,3.3c0,0.7-1.3,4.9,1,8.3c0,0-0.1,2.3,0.5,3.6c0,0-1.2,3.4,0.6,7.1c0,0,0,3.4,0.6,4
	c0,0-1,0.1,0.1,6.7c0,0,0,2.2,0.7,3.7c0,0-0.8,2.6-0.3,3.9c0,0,0,0.4,0.2,0.8c0,0-0.2,3.2,0.6,3.6c0,0,1.1,1.9,0.9,2.6
	c0,0,0.4-10.5,0.1-10.7c0,0,0.8-2.3,0.2-3.1c0,0,0.4-1,0.8-1.4l0.7-7c0,0,0.4-1.5,1.2-1.4l-0.6-0.9c0,0,4.6-3,4.9-5.6
	c0,0-0.2-3.2,0-3.7c0,0,0.7-8.1,1.6-9.5c0.8-1.4,2.5-6.9,7.8-5c5.3,1.9,15.2,2.7,15.9,2.1l-0.1-0.5c0,0,3.6,1.8,4.8,1.6l-0.7-1.5
	l2.5,0.9c0,0-1.3-1.9-0.7-2.4l1.7,1.3c0,0-0.8-3.1,0.7-3.9c0,0,5.7-6.4,13.6,4.5c4.1,4.7,9.3,3.8,10.7,2.6c0.4-0.1,1.7-1.5,2.6,1
	c0.9,2.5,1.8,6,1.7,7c0,0-0.9,6.7,2.9,12.8l0.7,1.4c0,0,0.6,0.5,0.9,2.1l1.2,10l0.1,2.7l-0.4,6.2c0,0,1.6-2,1.8-6L301.7,67.8z"/>
<path d="M241,75c0,0,13.7,2,14.3,2.7c0,0,3.1,0.1,3.2-0.2c0.1-0.3,0.3-0.6-1.8-1.7c0,0-10.2-4.3-11.5-4.2c-1.3,0.1-4.5-1.1-4.9-1.3
	c0,0-3-0.7-3.5,0c0,0-5,1.1-5.4,3.1c0,0,1.1,0.9,1.4,0.9c0,0,0-0.8,0.7-0.7c0,0,6.4,1.2,7.2,1.7L241,75z"/>
<path d="M270,77c0,0-0.7,1.2,1.2,1.3c0,0,4.8-0.9,5.2-0.7c0,0,0.7,0.5,0.9,0.4c0.2-0.1,0.2-0.4,0.2-0.4s0.4,0.1,0.8,0
	c0.4-0.1,1-0.2,1-0.2l0-0.3l0.9,0l-0.1-0.2c0,0,4.7-1.3,5.7-1s2.6-0.7,2.7-0.6c0.1,0.1,2.4-0.9,3.3-0.4c0,0,2.1,0.6,2.8,0.4
	c0,0,0.6,0.2,0.6-0.9c0,0-0.9-2-6.1-3.4c0,0-0.7-0.7-5.5,1.3c0,0-4.9,1.8-5.5,1.7c0,0-3.5,1.4-4.1,1.5C274.3,75.2,270.9,76.2,270,77
	z"/>
<circle cx="245.4" cy="80.2" r="3"/>
<path d="M284,81.1c0,1.6-1.3,3-3,3c-1.6,0-3-1.3-3-3c0-0.8,0.4-1.6,0.9-2.2c0.5-0.5,3.3-0.6,3.7-0.3C283.5,79.1,284,80,284,81.1z"/>
<path d="M247.8,78.4c-0.3-0.1-2.1-2.8-5.2,0.4c0,0-2-0.7-5.8,2.6c0,0-0.8-0.3-0.8-0.7c0.2-0.1,0-1.3-0.1-1.5c0,0,1.9-2.6,8.5-2
	c0,0,5.9-0.9,9,2.5l0.2,0.7c0,0-2.3-2.7-5.2-2.5c0,0,3.3,1,3.6,2.5c0,0-2.6-1.8-3.1-1.4c0,0-0.1,0-0.5,0.5"/>
<path d="M289.8,79.8l0.8,0.4v-0.3c0,0-0.1-0.3-0.2-0.5c0,0-1.7-2-8.4-1.9c0,0-4.8-0.7-8.3,2.7l0.3,0.1c0,0,4.3-3.6,9.4-2.3l-0.7,0.3
	c0,0-6.9-1.3-10.3,5.3c0,0,3-4,5.1-4c0,0,2.9-1.3,6.6-0.5c0,0,2.1,0.3,3,0.8C287.1,79.8,289.7,80.9,289.8,79.8z"/>
<path d="M261.9,111.9c0,0,3.5,1.5,6.7-1.4c0,0,1.7-2,3.4-2.3c0,0,1.6-0.3,2-0.7l0.3,0.2c0,0,0.3,0.6-4,2.5c0,0-2.4,2.4-4.7,2.4
	C265.8,112.6,263.2,113.3,261.9,111.9z"/>
<path d="M248.3,121.9c0,0,12,3.4,23.6-0.6c2.1-0.8,3.9-2.2,4.2-2.4c0.3-0.3,3.1-2.2,3.1-3.5c0,0-0.1-2.1,0.5-2.3
	c0.7-0.2,0.8,0.6,0.7,1.5c0,0,0.2,1.8-1.1,3c0,0-2.6,2.3-2.7,2.4s-1.6,1.2-3.7,2c-7.6,3.6-19,1.5-20.5,1.3
	C251.2,123.2,248.3,121.9,248.3,121.9z"/>
<path d="M262.4,144.3c-0.1,0-0.2,0-0.2,0c-7.6,0-11.7-3.3-12.5-4c-2.3-1.2-5.7-4.4-5.9-4.5c-10.4-10.9-14.1-23-14.4-24.1
	c-1.1-2.3-4.7-18.9-6.2-25.9c0,0,1.6-0.4,1.6,0.8c-0.2,3.3,5.5,23.2,6.1,24.4l0.1,0.1l0,0.1c0,0.1,3.7,12.5,14,23.4
	c0,0,3.4,3.3,5.5,4.2l0.1,0.1l0.1,0.1c0,0,3.9,3.6,11.4,3.6c0.1,0,9.4,0.1,15.5-5.9c0,0,4.3-4.2,7-6.8c3.6-3.4,8-12.9,10.3-20.1
	c0-0.1,1.4-3.7,2.8-8.6c1.4-5,2.1-11.6,2-12.5l1.3-3.2c0.2,1.2-0.2,11-1.7,16.1c-1.4,5-2.8,8.6-2.8,8.7c-2.4,7.3-6.9,17.1-10.7,20.8
	c-2.7,2.6-7,6.8-7,6.8C272.7,144.1,263.8,144.3,262.4,144.3z"/>
<path class="st0" d="M256.3,40.5c0,0-8.1-11.4-2.5-15.7C253.8,24.8,244.6,27.6,256.3,40.5z"/>
<path class="st0" d="M254.5,40.5c0,0-12.2-4.7-6.6-13.2C248,27.3,237.3,35.2,254.5,40.5z"/>
<path class="st1" d="M229.7,114l-5.8,3.3c0,0-3.7-1.6-5.5-0.4c-1.1,0.6-4,1.6-4.1,2.2c0,0-1.7-0.2-3.2,1.2c-1.2,1.1-4.1,2.4-5.4,3.1
	c-1.3,0.7-9,2.5-9.6,3.1c-0.1,0.7-12.2,4.9-15.4,22.2c19,0,71.6,0.1,71.6,0.1s-3.8-2.7-6.2-6c0,0-4.7-5.9-5.2-8.3
	C240.8,134.4,230.3,118.8,229.7,114z"/>
<path class="st1" d="M296.4,111.5c0,0,11.4,3.4,15.1,6.1c0,0,1.8-1.8,3.4,0.6c0,0,2.1,0.4,2.5-0.1c0,0,7.8-1.5,16.3,6.7
	c10,11.2,9.3,23.9,9.3,23.9s-47.5,0-64.2,0c0.2-2.1-0.3-3.3,1.6-5.3c0,0,4.5-7.6,4.6-10.4C285.2,133,296.6,115.6,296.4,111.5z"/>
<path d="M261.2,111.4l-2.1-1.5C259.1,109.9,259.8,111.3,261.2,111.4z"/>
<path d="M251,146c-2.3-2.3-4.2-4.3-5-5.3c-1.1-1.7-4-6.6-4.4-8.4l0-0.2l-0.1-0.1c-2.9-4.3-10.5-16.2-11-20l-0.2-1.3l-6.6,3.7
	c-1.1-0.4-4.1-1.4-5.9-0.3c-0.3,0.2-0.8,0.4-1.4,0.6c-1.2,0.5-2,0.9-2.5,1.3c-1-0.2-2.4,0-3.3,1.4c-0.5,0.3-1.8,1-3.2,2
	c-2.4,0.9-4.4,1.5-6.1,2.1c-2.2,0.7-3.9,1.3-5.3,1.9l0,0c0,0,0,0-0.1,0c0,0-0.1,0-0.1,0l0,0c-1.7,0.8-17.6,8.7-17.9,25l1.8,0
	c0.3-15.9,16.3-23.2,16.4-23.2v0c1.4-0.6,3.6-1.4,5.7-2.1c1.8-0.6,3.8-1.3,6.3-2.2l0.2-0.1c1.8-1.2,3.4-2.1,3.4-2.1l0.2-0.1l0.1-0.2
	c0.7-1.2,1.7-0.8,1.9-0.7l0.9,0.4l0.2-0.8c0.3-0.3,1.4-0.7,2.1-1c0.6-0.2,1.1-0.5,1.6-0.7c1-0.7,3.5,0,4.7,0.5l0.4,0.2l5.2-2.9
	c1.7,5.6,9.8,17.9,10.9,19.4c0.6,2.6,4.2,8.2,4.6,8.9c0.9,1.2,2.9,3.2,5.2,5.6l1.7,1.4h2.3L251,146z"/>
<g>
	<path d="M80.2,58.1c0.2,0,0.2,0.1,0.2,0.3c-0.1,0.1-0.1,0.3-0.2,0.5c-0.1,0.2-0.2,0.4-0.4,0.7c-0.1,0.1-0.2,0.2-0.3,0.4
		c-0.2,0.2-0.4,0.5-0.6,0.8c-0.3,0.3-0.5,0.6-0.9,1c-0.3,0.4-0.7,0.7-1,1.1c-0.4,0.4-0.7,0.7-1.2,1c-0.4,0.3-0.8,0.6-1.2,0.9
		c-0.4,0.3-0.8,0.5-1.1,0.7c-0.4,0.2-0.7,0.3-1,0.4c-0.3,0.1-0.6,0.2-0.8,0.3c-0.3,0.1-0.6,0.1-0.8,0.1c-0.6,0.1-1.2,0-1.7-0.2
		c-0.6-0.2-1.1-0.5-1.6-0.9c-0.5-0.4-0.9-0.8-1.3-1.4c-0.4-0.5-0.7-1.1-0.9-1.7c-0.3-0.6-0.5-1.3-0.7-1.9c-0.2-0.7-0.4-1.4-0.4-2.1
		c-0.1-0.7-0.1-1.5-0.2-2.2c0-0.7,0-1.5,0.1-2.3c0.1-0.8,0.2-1.6,0.4-2.4c0.2-0.8,0.4-1.6,0.7-2.4c0.1-0.2,0.1-0.4,0.2-0.6
		c0.1-0.2,0.1-0.4,0.3-0.6c0.1-0.4,0.3-0.8,0.5-1.2c0.4-0.8,0.9-1.6,1.4-2.4c0.3-0.4,0.6-0.8,0.8-1.2c0.3-0.4,0.6-0.8,0.9-1.2
		l1.1-1.1c0.2-0.2,0.4-0.4,0.6-0.6c0.2-0.2,0.4-0.3,0.7-0.5c0.2-0.2,0.5-0.3,0.7-0.5c0.2-0.2,0.5-0.3,0.8-0.4
		c0.6-0.3,1.2-0.4,1.9-0.6h0c0,0,0.1,0,0.1,0c0,0,0.1,0,0.1,0c0.5-0.1,1.1,0,1.7,0.1l0.2,0.1l0.5,0.2l0.1,0.1c0,0,0,0,0.1,0
		c0,0,0,0,0.1,0l0.4,0.3l0.2,0.2l0.2,0.2c0.4,0.5,0.7,1.1,0.8,1.7c0.1,0.3,0.1,0.6,0.1,0.8c0,0.3,0,0.5,0,0.8c0,0.5-0.1,1-0.2,1.5
		c-0.1,0.5-0.3,1-0.5,1.5c-0.2,0.5-0.4,0.9-0.7,1.4C78,46.9,78,47,77.9,47.1c-0.1,0.1-0.2,0.2-0.3,0.3l-0.2,0.2l0,0l-0.2,0.2
		c-0.5,0.6-1,1.2-1.7,1.8c-0.7,0.7-1.4,1.3-2.1,1.8c-0.4,0.3-0.7,0.5-1,0.7c-0.3,0.2-0.6,0.4-0.9,0.5l-0.4,0.2l-0.3,0.2L70.3,53
		c-0.1,0.1-0.2,0.1-0.3,0.1c-0.1,0-0.2,0-0.3-0.1c-0.2,0-0.3-0.1-0.3-0.2c-0.1-0.1-0.1-0.2,0-0.3c0.1-0.1,0.2-0.2,0.4-0.3l0.6-0.2
		l0.5-0.2l0.5-0.3c0.4-0.2,0.7-0.4,1-0.7c0.3-0.2,0.6-0.4,0.8-0.6c0.4-0.4,0.7-0.7,1-1.1c0.3-0.4,0.6-0.8,0.8-1.3
		c0.1-0.2,0.3-0.4,0.4-0.7c0.1-0.2,0.3-0.5,0.4-0.7c0,0,0-0.1,0-0.1c0,0,0-0.1,0-0.1l0.1-0.1l0-0.1C76,46,76,45.9,76,45.9
		c0.1-0.1,0.1-0.1,0.1-0.2c0.1-0.2,0.2-0.4,0.3-0.7c0.1-0.3,0.1-0.5,0.1-0.8c0-0.3,0.1-0.5,0.1-0.8c0-0.3,0-0.6,0-0.8
		c0-0.3,0-0.5-0.1-0.8c0-0.2-0.1-0.4-0.2-0.7c-0.1-0.2-0.2-0.3-0.2-0.4l-0.3-0.2l-0.4-0.1c-0.7,0.1-1.4,0.5-2.1,1.1
		c-0.7,0.5-1.4,1.2-2,2c-0.6,0.7-1.2,1.5-1.7,2.4l-0.8,1.3l-0.7,1.3c-0.1,0.2-0.2,0.5-0.3,0.7c-0.1,0.2-0.2,0.5-0.3,0.7
		c-0.1,0.2-0.2,0.5-0.3,0.7c-0.1,0.2-0.2,0.5-0.2,0.7c-0.1,0.5-0.3,1-0.4,1.4c-0.1,0.5-0.2,1-0.3,1.4c-0.1,1-0.2,2-0.2,2.9
		c0,1,0.1,1.9,0.3,2.8c0.1,0.3,0.1,0.4,0.2,0.6c0.1,0.3,0.1,0.5,0.2,0.6c0.1,0.2,0.1,0.4,0.2,0.6c0.1,0.2,0.2,0.4,0.3,0.6
		c0.2,0.4,0.4,0.8,0.6,1.1c0.2,0.3,0.5,0.6,0.8,0.9c0.6,0.5,1.3,0.7,2.1,0.7c0.4,0,0.8-0.1,1.2-0.2c0.4-0.1,0.8-0.3,1.2-0.5l0.2-0.1
		l0.1-0.1l0.3-0.2l0.3-0.2l0.2-0.1l0.1-0.1l0.5-0.4c0.1-0.1,0.2-0.2,0.2-0.2l0.3-0.2c0.3-0.3,0.6-0.6,0.9-0.8
		c0.3-0.3,0.5-0.5,0.8-0.8c0.5-0.5,0.9-0.9,1.2-1.3c0.3-0.3,0.5-0.6,0.6-0.7c0.3-0.4,0.6-0.6,0.9-0.9C79.9,58.2,80.1,58.1,80.2,58.1
		z M64.6,55.4c0-0.2,0-0.3-0.1-0.3c0,0-0.1,0-0.1,0c0,0,0,0.1,0,0.2c0,0.2,0,0.2,0,0.3c0,0,0,0,0,0C64.6,55.6,64.6,55.5,64.6,55.4z
		 M65.1,52.3c0.1-0.5,0.2-1,0.3-1.3c0.1-0.3,0.1-0.5,0.1-0.7c0.1-0.3,0.1-0.4,0-0.4c0,0,0,0.1,0,0.1c0,0-0.1,0.1-0.2,0.3
		c-0.1,0.1-0.1,0.3-0.2,0.7c-0.1,0.3-0.2,0.7-0.3,1.2c-0.1,0.5-0.2,1-0.2,1.3c0,0.3,0,0.6,0,0.8c0,0.3,0,0.4,0,0.5
		c0,0,0-0.2,0.1-0.5L65.1,52.3z M65.7,53.1c0.2-1.1,0.4-1.9,0.6-2.6l0.5-1.3l0.2-0.3l0.1-0.2c0.1-0.1,0.1-0.1,0.1-0.1h0c0,0,0,0,0,0
		l0,0l-0.1,0.1l-0.2,0.3c-0.1,0.2-0.2,0.3-0.3,0.6c-0.1,0.2-0.2,0.5-0.3,0.8c-0.1,0.3-0.2,0.7-0.3,1.1c-0.1,0.4-0.2,0.9-0.3,1.5
		c-0.1,0.6-0.1,1.1-0.2,1.6c0,0.4-0.1,0.9-0.1,1.2c0,0.4,0,0.7,0,0.9c0,0.3,0.1,0.5,0.1,0.7c0,0.1,0,0.1,0,0.1c0,0,0,0.1,0,0.1
		c0,0.1,0,0.1,0,0.1c0,0,0,0.1,0,0.1c0,0.1,0,0.1,0,0.1c0,0,0,0,0,0.1l0.1,0.1c0,0,0,0.1,0.1,0.1l0,0l0-0.1v0l0-0.1
		c0-0.1,0-0.1,0-0.1c0-0.1,0-0.1,0-0.2v-0.2c0,0,0-0.1,0-0.2c0-0.2,0-0.4-0.1-0.7c0-0.3,0-0.6,0-0.9c0-0.4,0.1-0.8,0.1-1.2
		C65.5,54.2,65.6,53.7,65.7,53.1z M69,44.4l0.5-0.6c0.2-0.2,0.4-0.5,0.8-0.9s0.8-0.9,1.5-1.4c0.7-0.6,1.2-1,1.6-1.2
		c0.4-0.3,0.7-0.4,0.9-0.5l0.3-0.2c0,0,0.1,0,0.1,0l-0.1,0h-0.1l0,0h-0.2l0,0h0c0,0-0.1,0-0.1,0c-0.2,0.1-0.5,0.2-0.9,0.5
		c-0.4,0.2-1,0.6-1.6,1.2c-0.7,0.6-1.2,1.1-1.5,1.5c-0.3,0.4-0.6,0.7-0.7,1c-0.1,0.3-0.2,0.4-0.2,0.5C69,44.3,69,44.3,69,44.4
		L69,44.4z M69.8,41.9c-0.1,0.1-0.1,0.1-0.1,0.1c0,0,0,0.1,0,0.1h0.1v0h0c0,0,0.1,0,0.1,0l0.1-0.2c0,0,0-0.1,0-0.1L69.8,41.9
		L69.8,41.9L69.8,41.9z M70.1,41.7c0.1,0,0.2-0.1,0.3-0.2l1.2-1l1.2-0.9c0.1-0.1,0.2-0.1,0.2-0.2c0,0,0-0.1,0-0.1h-0.1v0h-0.1l0,0
		h-0.1c-0.1,0.1-0.3,0.1-0.5,0.3c-0.2,0.1-0.4,0.3-0.8,0.6c-0.3,0.3-0.6,0.5-0.8,0.7c-0.2,0.2-0.3,0.3-0.4,0.4
		C70.2,41.5,70.1,41.6,70.1,41.7z M76.6,46.6L76.6,46.6l0.2,0l0.2-0.1c0.1-0.1,0.2-0.3,0.4-0.5c0.2-0.2,0.3-0.6,0.5-1.1
		c0.2-0.5,0.3-0.8,0.3-1.2c0-0.3,0.1-0.5,0.1-0.7c0-0.1,0-0.1,0-0.2c0-0.1,0-0.1,0-0.2v-0.1c0,0-0.1,0.1-0.2,0.4
		c-0.1,0.2-0.1,0.4-0.2,0.7c-0.1,0.3-0.2,0.7-0.3,1.1c-0.2,0.5-0.3,0.8-0.4,1c-0.1,0.2-0.2,0.4-0.3,0.5l-0.1,0.2
		C76.7,46.5,76.7,46.5,76.6,46.6L76.6,46.6z M77.5,40.4c0,0,0,0.1,0.1,0.1c0.1,0.1,0.1,0.1,0.2,0.2c0.1,0.1,0.1,0.2,0.2,0.4l0.2,0.6
		c0,0,0,0.1,0,0.1c0,0,0,0,0,0c0,0,0.1-0.1,0.1-0.2c0-0.1,0-0.2,0-0.2c0-0.1,0-0.1,0-0.2L78.1,41c-0.1-0.2-0.1-0.3-0.2-0.4
		c-0.1-0.1-0.1-0.1-0.2-0.2c0,0-0.1,0-0.1,0H77.5L77.5,40.4L77.5,40.4z M78.3,42.2c0-0.1,0-0.2-0.1-0.2l0,0c-0.1,0-0.1,0.1-0.1,0.3
		c0,0.2,0,0.2,0.1,0.2l0,0C78.3,42.3,78.3,42.3,78.3,42.2z"/>
	<path d="M90.2,53.9c0.1-0.1,0.3-0.1,0.4,0c0.1,0,0.1,0.1,0.1,0.3c0,0.1-0.1,0.2-0.2,0.3c-0.1,0.2-0.2,0.4-0.3,0.6l-0.1,0.1
		c-0.1,0.1-0.1,0.2-0.2,0.2c0,0,0,0.1-0.1,0.1c0,0,0,0.1-0.1,0.1l0,0c0,0-0.1,0.1-0.3,0.2c-0.2,0.1-0.4,0.2-0.7,0.3
		c-0.2,0.1-0.4,0.2-0.7,0.3c-0.2,0.1-0.3,0.1-0.3,0.2l-0.2,0.1l-0.3,0.2L87,56.9L86.9,57c-0.1,0.1-0.1,0.2-0.1,0.2
		c-0.2,0.6-0.5,1.2-0.8,1.8c-0.3,0.6-0.6,1.1-1.1,1.6c-0.6,0.7-1.3,1.1-2,1.2c-0.8,0.1-1.5,0.1-2.1,0c-0.3-0.1-0.7-0.3-1-0.6
		c-0.3-0.3-0.5-0.8-0.7-1.5c-0.2-0.7-0.2-1.5-0.2-2.4c0-1,0.1-2.1,0.4-3.4c0.1-0.4,0.3-0.7,0.6-0.8c0.3-0.1,0.7-0.2,1-0.1
		c0.3,0.1,0.6,0.2,0.9,0.4s0.3,0.4,0.3,0.7c-0.1,0.5-0.2,1.1-0.3,1.6c0,0.6,0,1.1,0,1.5c0,0.5,0.1,0.9,0.1,1.3
		c0.1,0.4,0.1,0.6,0.2,0.7c0.1,0.2,0.3,0.4,0.5,0.6c0.2,0.2,0.4,0.2,0.6,0.3c0.2,0,0.5-0.1,0.8-0.2c0.3-0.2,0.5-0.5,0.8-0.9
		c0.2-0.3,0.4-0.6,0.5-0.8c0.2-0.3,0.3-0.5,0.4-0.8c-0.1,0-0.1,0-0.2,0c-0.1,0-0.3,0-0.4,0c-0.2,0-0.3,0-0.5-0.1
		c-0.4-0.1-0.7-0.2-0.9-0.4c-0.4-0.3-0.6-0.6-0.8-0.9c-0.1-0.2-0.2-0.4-0.2-0.6c0-0.2-0.1-0.4-0.1-0.7c0-0.2,0-0.5,0.1-0.7
		c0.1-0.2,0.1-0.4,0.2-0.6l0.1-0.3l0.1-0.2c0.1-0.2,0.2-0.3,0.3-0.4c0.1-0.1,0.2-0.3,0.3-0.4c0.2-0.4,0.6-0.7,1-1
		c0.1-0.1,0.3-0.1,0.4-0.2c0.1-0.1,0.3-0.1,0.4-0.1H86l0.2,0.1c0,0,0.1,0,0.1,0c0,0,0.1,0,0.1,0c0.1,0.1,0.2,0.1,0.3,0.2
		s0.2,0.2,0.3,0.3l0.2,0.4c0,0,0,0.1,0,0.1c0,0,0,0.1,0,0.1l0.1,0.2l0.1,0.5l0,0.2c0,0.1,0,0.1,0,0.1c0,0,0,0.1,0,0.1l0,0.2V54
		c0,0.4,0,0.7-0.1,1.1l-0.2,0.6c0.1,0,0.2-0.1,0.4-0.2c0.2-0.1,0.5-0.2,0.8-0.4c0.3-0.1,0.5-0.3,0.7-0.4c0.2-0.1,0.4-0.2,0.4-0.3
		l0.2-0.4L90,54L90.2,53.9z M80.1,56.2c0-0.3,0-0.6,0.1-0.7c0-0.2,0-0.3,0-0.4c0-0.2,0-0.2-0.1-0.2c0,0,0,0,0,0c0,0,0,0,0,0.1
		c0,0,0,0,0,0.1c-0.1,0.2-0.2,0.6-0.2,1.2c0,0.6,0,1.1,0,1.2c0,0.1,0,0.1,0,0.1c0,0,0,0.1,0,0.1c0,0,0,0.1,0,0.1h0v-0.1
		c0,0,0-0.1,0-0.1c0,0,0-0.1,0-0.1L80.1,56.2z M80,58.2c0.1,0,0.1-0.1,0.1-0.2l0,0v-0.1H80v0c-0.1,0-0.1,0.1-0.1,0.2
		C79.8,58.1,79.9,58.2,80,58.2L80,58.2z M81.2,59.4C81.2,59.4,81.2,59.4,81.2,59.4c-0.1-0.1-0.1-0.2-0.2-0.3
		c-0.1-0.2-0.1-0.4-0.2-0.8c-0.1-0.4-0.1-0.9,0-1.6c0-0.3,0.1-0.6,0.1-0.9c0-0.2,0.1-0.5,0.1-0.7l0.1-0.9c0-0.2,0-0.3,0-0.4
		s0-0.1,0-0.1l0,0.1c-0.1,0.1-0.1,0.2-0.1,0.3l-0.2,0.9c-0.1,0.2-0.1,0.4-0.1,0.7c0,0.2-0.1,0.5-0.1,0.9c-0.1,0.7,0,1.2,0,1.6
		c0.1,0.4,0.2,0.7,0.3,0.8C80.9,59.3,81,59.4,81.2,59.4C81.1,59.4,81.2,59.4,81.2,59.4z M84.8,52.1C84.9,52,84.9,52,85,52
		c0,0,0,0,0,0c0,0,0,0,0,0l0.1-0.1c0.1-0.1,0.1-0.1,0-0.1v0H85c-0.1,0-0.1,0-0.1,0c0,0,0,0-0.1,0c0,0,0,0-0.1,0l-0.1,0.1l-0.2,0.2
		c-0.1,0.1-0.1,0.1-0.1,0.1c0,0.1,0,0.1,0,0.1c0,0,0,0,0,0h0c0,0,0,0,0,0l0.2-0.1L84.8,52.1z M86.5,55.8c0.1-0.4,0-0.8-0.2-1.2
		c-0.1-0.2-0.1-0.4-0.2-0.6L86,53.9l0-0.1l0,0c0-0.1,0-0.1-0.1-0.1c0-0.1,0-0.1-0.1-0.1c-0.1-0.1-0.2-0.1-0.3-0.1l-0.2,0.3L85.2,54
		l-0.1,0.2v0.1l0,0c0,0.1,0,0.2-0.1,0.3c0,0.1,0,0.2,0,0.3c0,0.2,0,0.3,0.1,0.5c0,0.1,0.1,0.2,0.2,0.3c0.1,0.1,0.3,0.2,0.4,0.2
		c0.2,0.1,0.4,0.1,0.7,0.1C86.4,56,86.4,55.9,86.5,55.8C86.5,55.9,86.5,55.9,86.5,55.8z M85.3,51.6c-0.1,0-0.1,0.1-0.1,0.2l0,0
		c0,0,0.1,0,0.1,0l0,0c0.1,0,0.1,0,0.1,0v-0.1v-0.1H85.3z M87.2,53.1C87.2,53.1,87.2,53,87.2,53.1c0-0.1,0-0.1,0-0.2
		c0-0.1,0-0.2-0.1-0.3c-0.1-0.2-0.2-0.3-0.3-0.6l-0.1-0.2l-0.2-0.1c-0.1-0.1-0.1-0.1-0.2-0.1l-0.1-0.1c0,0,0,0-0.1,0c0,0,0,0-0.1,0
		H86l0,0h-0.2c0,0,0,0,0,0h0l0,0h-0.1v0h0.1c0,0,0.1,0,0.1,0c0,0,0.1,0,0.1,0l0.3,0.2c0,0,0.1,0,0.1,0c0.1,0.1,0.1,0.1,0.1,0.1
		l0.2,0.2c0.2,0.2,0.3,0.4,0.3,0.5c0.1,0.1,0.1,0.2,0.2,0.3l0,0v0L87.2,53.1L87.2,53.1L87.2,53.1L87.2,53.1L87.2,53.1L87.2,53.1z"/>
	<path d="M103.3,59l-0.2,0.6c-0.3,0.9-0.5,1.9-0.8,2.8c-0.3,0.9-0.7,1.8-1.3,2.7c-0.4,0.7-0.9,1.2-1.5,1.7c-0.4,0.3-0.8,0.5-1.1,0.4
		c-0.4-0.1-0.7-0.3-1.1-0.7c-0.5-0.6-0.8-1.2-1-1.9c-0.2-0.7-0.4-1.4-0.5-2.2c-0.3-1.4-0.3-2.9-0.2-4.3c0.1-1.4,0.3-2.8,0.6-4.2
		c0.1-0.3,0.1-0.5,0.1-0.8c0-0.2,0-0.5,0-0.8c0-0.2-0.1-0.4-0.3-0.6c-0.1,0-0.1,0-0.3,0.1c-0.1,0.1-0.2,0.1-0.3,0.2
		c-0.3,0.5-0.7,0.9-1,1.4c-0.3,0.5-0.6,0.9-0.9,1.5c-0.4,0.6-0.7,1.3-0.9,2c-0.3,0.7-0.5,1.3-0.8,2c-0.1,0.2-0.1,0.3-0.1,0.5
		c0,0.2,0,0.3,0,0.5c0,0.2,0,0.5,0,0.7c0,0.3-0.1,0.4-0.5,0.5c-0.4,0.1-0.8,0.1-1.2,0c-0.3-0.1-0.6-0.4-0.7-0.8c0-0.1,0-0.3-0.1-0.5
		c0-0.3,0-0.6,0-1c0-0.4,0-0.8,0-1.3c0-0.5,0-0.9,0-1.4c0-1.1,0.1-2.3,0.1-3.6c0.1-0.9,0.6-1.1,1.3-0.6c0.6,0.3,0.9,0.6,1,0.9
		c0.1,0.3,0.1,0.8,0,1.4c-0.1,0.4-0.1,0.9-0.1,1.3c0,0.4-0.1,0.8-0.1,1.3l0.1,0.2l0.8-1.8c0.3-0.7,0.7-1.3,1.1-2
		c0.4-0.6,0.9-1.2,1.4-1.8c0.4-0.4,0.8-0.6,1.4-0.5c0.3,0,0.6,0.1,0.9,0.3c0.3,0.2,0.6,0.4,0.8,0.6c0.2,0.2,0.4,0.5,0.6,0.8
		c0.1,0.3,0.2,0.6,0.2,0.9c-0.1,1.1-0.1,2.1-0.2,3.1c-0.1,1-0.2,2-0.3,3.1c-0.1,0.7-0.1,1.5-0.2,2.2c0,0.7,0.1,1.5,0.2,2.2l0.1,0.5
		c0.2,0.4,0.4,0.6,0.6,0.7c0.3,0.1,0.5-0.1,0.8-0.4c0.2-0.2,0.4-0.5,0.6-0.8c0.2-0.3,0.3-0.5,0.5-0.8c0.5-1.3,1-2.6,1.4-3.9
		c0.4-1.3,0.7-2.6,0.9-4L103.3,59z M90,57.3c0.1-0.1,0.1-0.1,0.1-0.1c0-0.1,0-0.2-0.1-0.2h0v0h0v0.1c0,0,0,0,0,0
		C89.9,57.3,89.9,57.4,90,57.3L90,57.3z M90.6,55.4c0-0.3,0-0.5,0-0.7c0-0.2,0-0.3,0-0.4c0-0.1,0-0.1,0-0.2c0,0,0,0,0,0
		c-0.1,0-0.1,0.1-0.1,0.2c-0.1,0.1-0.1,0.5-0.2,1.1c-0.1,0.6-0.1,1,0,1.1c0,0.2,0.1,0.3,0.1,0.3c0,0,0.1-0.1,0.1-0.3
		C90.5,56.4,90.6,56,90.6,55.4z M91.4,53.1L91.4,53.1L91.4,53.1C91.4,53.1,91.3,53.1,91.4,53.1c-0.1,0-0.1,0.1-0.2,0.3
		c-0.1,0.2-0.1,0.5-0.1,0.8c0,0.4-0.1,0.9-0.1,1.5c-0.1,0.7-0.1,1.2-0.1,1.6c0,0.4,0,0.7,0,0.9c0,0.2,0,0.3,0.1,0.4l0,0.1l0-0.1
		v-0.4c0-0.2,0-0.5,0-0.9c0-0.4,0.1-0.9,0.1-1.6c0.1-0.7,0.1-1.2,0.1-1.5c0-0.4,0-0.6,0-0.8V53.1z M96.7,58.8
		C96.7,58.8,96.7,58.7,96.7,58.8c0-0.1,0-0.1,0-0.1c0,0,0,0,0,0h-0.1v0h0v0.1c0,0.1,0,0.2,0.1,0.2l0,0
		C96.6,58.9,96.7,58.9,96.7,58.8z M96.9,56.7C97,56,97,55.5,97,55.3c0-0.1,0-0.1,0-0.1s0-0.1,0-0.1v0c0,0,0,0,0,0c0,0,0,0.1,0,0.1
		c0,0,0,0.1,0,0.1c-0.1,0.1-0.1,0.3-0.1,0.5s-0.1,0.5-0.1,0.9c-0.1,0.7-0.1,1.2-0.1,1.4c0,0.2,0,0.3,0.1,0.3s0.1-0.1,0.1-0.3
		C96.7,57.9,96.8,57.4,96.9,56.7z M97.9,54.3c0-0.1,0-0.2,0-0.3c0-0.1,0-0.1,0-0.2v-0.1h0l0,0.1c-0.1,0.1-0.1,0.2-0.1,0.4
		c-0.1,0.2-0.1,0.6-0.2,1c-0.1,0.5-0.2,1.1-0.3,1.9c-0.1,0.8-0.2,1.5-0.2,2c0,0.5,0,0.9,0,1.2c0,0.3,0.1,0.4,0.1,0.5l0,0l0,0v0
		c0,0,0-0.1,0-0.2c0-0.1,0-0.2,0-0.3c0-0.3,0-0.7,0-1.1c0-0.5,0.1-1.1,0.2-1.9L97.9,54.3z"/>
	<path d="M112.6,45.5c0.1-0.1,0.2-0.2,0.3-0.2c-0.1,0.2-0.3,0.5-0.4,0.7c-0.1,0.2-0.2,0.5-0.4,0.7l-0.2,0.3
		c-1.1,0.7-2.3,1.2-3.5,1.3c-1.3,0.2-2.6,0.1-3.9-0.1c0,0.1,0,0.3,0,0.8c0,0.4,0,1,0,1.7c0,0.7,0,1.4,0,2.3c0,0.8,0,1.7,0.1,2.5
		c0,0.8,0.1,1.7,0.1,2.4c0.1,0.8,0.1,1.4,0.3,2c0.1,0.2,0.1,0.5,0.2,0.7c0.1,0.2,0.1,0.5,0.2,0.7c0.2,0.4,0.5,0.7,0.9,0.9
		c0.4,0.2,0.8,0.2,1.3,0c0.4-0.2,0.8-0.4,1.1-0.8c0.3-0.3,0.6-0.7,0.8-1.2c0.6-1,1.1-2.2,1.4-3.4c0.1-0.2,0.1-0.3,0.2-0.3
		c0.1,0,0.2,0.1,0.3,0.2c0.1,0.2,0.2,0.4,0.3,0.6l0,0l-0.6,1.7c-0.2,0.6-0.5,1.3-0.8,1.9c-0.3,0.6-0.7,1.2-1.1,1.7
		c-0.6,0.6-1.2,1-1.9,1.2c-0.7,0.1-1.4,0-2.1-0.5c-0.6-0.3-1-0.7-1.3-1c-0.3-0.3-0.5-0.8-0.7-1.5c-0.3-1.3-0.5-2.4-0.7-3.5
		c-0.1-1.1-0.2-2.1-0.3-3.1c0-1-0.1-2.1,0-3.2c0-1.1,0-2.4,0.1-3.8c0-0.2,0-0.4-0.1-0.5c0-0.1-0.2-0.2-0.4-0.3
		c-0.3-0.1-0.6-0.1-0.9-0.2s-0.6-0.2-0.9-0.2L99.2,46c0.1-0.4,0.5-0.6,1-0.7c0.5-0.1,1.2,0,2.1,0.3l0.2-1.2c0.2-0.8,0.4-1.6,0.6-2.3
		c0.2-0.8,0.4-1.5,0.6-2.3c0.1-0.4,0.3-0.7,0.5-1.1c0.2-0.3,0.5-0.7,0.7-1c0.2-0.3,0.5-0.5,0.9-0.7c0.3-0.1,0.7-0.2,1.1-0.2
		c0.6,0.1,1,0.4,1.1,1.1c0.1,0.5,0.2,1.1,0.1,1.6c-0.1,0.5-0.2,1-0.4,1.5c-0.3,0.9-0.7,1.8-1.2,2.7c-0.4,0.9-0.8,1.8-1.2,2.7
		l-0.3,0.8c0.4,0.1,0.7,0.2,1,0.2c0.3,0.1,0.6,0.1,0.9,0.2c1.1,0.1,2.1-0.1,3.2-0.3C111,47,111.8,46.4,112.6,45.5z M103,58.1
		c0.1,0,0.1-0.1,0.1-0.2v0l0,0v0h0v0h0c-0.1,0-0.1,0.1-0.1,0.2C102.9,58,102.9,58.1,103,58.1C103,58.1,103,58.1,103,58.1z
		 M103.3,54.7c0,0.1,0,0.2,0,0.4c0,0.2,0,0.4,0,0.7c0,0.6,0.1,1,0.1,1.2c0,0.2,0.1,0.3,0.1,0.3c0,0,0-0.1,0.1-0.3c0-0.2,0-0.6,0-1.2
		c0-0.3,0-0.5-0.1-0.7c0-0.2,0-0.3,0-0.4c0-0.1,0-0.1,0-0.2c0,0,0,0,0,0h0c0,0,0,0,0,0c0,0,0,0.1,0,0.1
		C103.3,54.7,103.3,54.7,103.3,54.7z M104.4,59.1c0-0.1,0-0.1,0-0.2s0-0.1,0-0.3c0-0.2,0-0.5,0-0.9c0-0.4,0-0.9-0.1-1.6
		c-0.1-0.7-0.1-1.2-0.1-1.5c0-0.4,0-0.6,0-0.8c0-0.2,0-0.3-0.1-0.4c0,0,0-0.1,0-0.1c0,0,0,0.1-0.1,0.1c0,0,0,0.2,0,0.4
		c0,0.2,0,0.5-0.1,0.8c0,0.4,0,0.9,0,1.5c0,0.7,0.1,1.2,0.1,1.6c0,0.4,0.1,0.7,0.1,0.9C104.2,59,104.3,59.1,104.4,59.1L104.4,59.1
		L104.4,59.1L104.4,59.1z M104.4,41c0.1-0.2,0.1-0.3,0-0.4s0-0.1,0-0.1h0v0h0v0h0v0l0,0v0.2c0,0,0,0,0,0c0,0,0,0,0,0
		c0,0.2,0,0.3,0,0.4v0.1l0.1-0.1c0-0.1,0-0.1,0-0.2C104.4,41.2,104.4,41.1,104.4,41z M104.5,40.4c0-0.1,0-0.2-0.1-0.2h-0.1v0h0
		c0,0,0,0,0,0c0,0.1,0,0.1,0,0.2l0,0h0.1L104.5,40.4L104.5,40.4L104.5,40.4z M104.7,39.9c0.1-0.1,0.2-0.4,0.5-0.9
		c0.1-0.2,0.2-0.4,0.3-0.5c0.1-0.1,0.2-0.2,0.2-0.3c0,0,0,0,0-0.1c0,0,0,0,0-0.1c0,0,0,0,0,0h0v0h0c0,0,0,0,0,0h0c0,0-0.1,0-0.1,0
		c-0.1,0.1-0.2,0.1-0.3,0.2c-0.1,0.1-0.2,0.3-0.4,0.5c-0.2,0.3-0.3,0.5-0.3,0.6c-0.1,0.2-0.1,0.3-0.1,0.4c0,0.1,0,0.2,0,0.2
		c0,0,0,0.1,0,0.1C104.6,40.1,104.6,40,104.7,39.9z M105.1,42.7c-0.1,0.4-0.1,0.9-0.2,1.4c-0.1,0.5-0.2,0.9-0.2,1.4l0.3,0.1
		c0.3-0.8,0.6-1.5,1-2.3c0.4-0.8,0.7-1.5,1-2.3c0.1-0.3,0.2-0.6,0.3-0.9c0-0.3,0.1-0.6,0.1-0.9c0-0.3,0-0.6-0.1-0.8
		c-0.1-0.3-0.3-0.4-0.6-0.5c-0.3-0.1-0.6,0-0.7,0.3c-0.1,0.2-0.2,0.5-0.3,0.8c-0.1,0.6-0.3,1.3-0.4,1.9
		C105.3,41.4,105.2,42,105.1,42.7z"/>
	<path d="M121.4,56c0.1-0.2,0.2-0.3,0.3-0.4c0.1-0.1,0.2-0.1,0.2,0c0.1,0.1,0.1,0.1,0.2,0.3c0,0.1,0,0.3,0,0.6
		c-0.1,0.4-0.3,0.8-0.4,1.3c-0.2,0.5-0.4,1-0.7,1.6c-0.3,0.5-0.5,1-0.8,1.5c-0.3,0.5-0.5,0.9-0.8,1.2c-0.3,0.4-0.6,0.6-0.8,0.8
		c-0.3,0.2-0.6,0.3-0.8,0.3c-0.7,0.2-1.3,0.1-1.8-0.2c-0.5-0.3-0.8-0.7-0.8-1.1c0,0,0,0,0,0c0-0.2-0.1-0.3-0.1-0.6
		c0-0.2-0.1-0.4-0.1-0.6c-0.2,0.1-0.3,0.3-0.6,0.5c-0.2,0.2-0.4,0.4-0.5,0.5c-0.4,0.3-0.7,0.5-1.1,0.7c-0.4,0.2-0.8,0.3-1.3,0.2
		c-1.3-0.1-1.9-1-2-2.5c-0.2-2.7,0.4-5.1,1.8-7.4c0.4-0.7,0.9-1.1,1.6-1.3c0.5-0.2,1-0.2,1.4-0.1c0.4,0.1,0.8,0.3,1.1,0.7
		c0.4,0.4,0.6,0.9,0.8,1.4c0.1,0.5,0.2,1,0.3,1.5c0,0.1-0.1,0.2-0.2,0.2c-0.2,0-0.2,0-0.3-0.1c0-0.2-0.1-0.5-0.1-0.7
		c0-0.2-0.1-0.4-0.2-0.7c-0.1-0.4-0.3-0.7-0.4-0.9c-0.1-0.2-0.3-0.4-0.3-0.4c-0.2-0.1-0.4,0-0.6,0.3c-0.2,0.2-0.4,0.5-0.5,0.7
		c-0.6,0.8-1,1.7-1.2,2.6c-0.3,0.9-0.4,1.9-0.5,2.9c-0.1,0.7-0.1,1.4,0,2.1c0.1,0.8,0.4,0.9,1.1,0.5c0.4-0.3,0.8-0.7,1.2-1.1
		c0.4-0.4,0.6-0.8,0.8-1.3c0.1-0.3,0.1-0.6,0.2-0.8c0.1-0.3,0.2-0.5,0.3-0.8c0.2-0.4,0.5-0.5,0.9-0.2c0.3,0.3,0.5,0.5,0.7,0.8
		s0.2,0.6,0.2,1.1c-0.1,0.5-0.2,1-0.3,1.6c-0.1,0.6-0.1,1,0,1.4c0.1,0.2,0.1,0.2,0.3,0.3c0.1,0,0.3,0,0.4,0c0.1-0.1,0.3-0.1,0.4-0.2
		c0.1-0.1,0.2-0.1,0.3-0.2c0.3-0.3,0.7-0.7,1-1.2c0.3-0.5,0.6-1.1,0.8-1.6c0.3-0.6,0.5-1.1,0.7-1.7C121.1,56.9,121.2,56.4,121.4,56z
		 M110.9,56c0.2-0.6,0.3-1.2,0.5-1.8c0.2-0.6,0.5-1.1,1.1-1.5c-0.6,0.3-1,0.8-1.2,1.4C111,54.8,110.9,55.4,110.9,56z M111.4,58.9
		c0-0.3,0-0.6,0-0.8c0-0.2,0-0.4,0-0.5c0-0.1,0-0.2,0-0.2c0,0,0-0.1,0-0.1l-0.2,0.3c-0.1,0.1-0.1,0.3-0.1,0.5c0,0.2-0.1,0.5-0.1,0.8
		c0,0.3,0,0.6,0,0.8c0,0.2,0.1,0.3,0.1,0.4l0,0v0c0,0,0,0,0,0c0,0,0,0,0,0h0c0.1,0,0.1-0.1,0.1-0.2c0-0.1,0-0.2,0-0.4
		C111.4,59.5,111.4,59.2,111.4,58.9z M111.6,57.1c0-0.1,0-0.1-0.1-0.1c0,0-0.1-0.1-0.1-0.1h-0.1c0,0,0,0,0,0h0v0h0v0
		c0,0.1,0,0.2,0.1,0.2h0.1L111.6,57.1L111.6,57.1L111.6,57.1L111.6,57.1z M111.5,56.7c0-0.1,0-0.1,0-0.1c0-0.6,0.1-1.3,0.4-1.9
		c0.3-0.6,0.6-1.2,1.1-1.7c0.1-0.1,0.2-0.2,0.3-0.3c0.1-0.1,0.2-0.2,0.3-0.2l0.4-0.3h-0.1c-0.1,0-0.2,0.1-0.4,0.2l-0.7,0.5
		c-0.3,0.3-0.5,0.6-0.8,1c-0.2,0.4-0.4,0.8-0.5,1.2c-0.1,0.2-0.1,0.5-0.2,0.8c-0.1,0.3-0.1,0.6,0.1,0.8h0L111.5,56.7L111.5,56.7
		L111.5,56.7z M112.4,52.7C112.5,52.7,112.5,52.7,112.4,52.7L112.4,52.7z M113.9,52.1C114,52.1,114,52.1,113.9,52.1L113.9,52.1z"/>
	<path d="M130.6,55.3c0.2-0.2,0.3-0.2,0.3-0.2c0.1,0,0.1,0.1,0.1,0.2c0,0.1,0,0.2,0,0.4c0,0.1,0,0.2,0,0.3c-0.3,0.8-0.7,1.5-1.2,2.1
		c-0.4,0.6-0.9,1.2-1.4,1.6c-0.5,0.5-0.9,0.9-1.4,1.2c-0.5,0.3-0.9,0.6-1.3,0.9c-0.7,0.5-1.4,0.7-2.3,0.8c-0.8,0.1-1.5,0-2.1-0.2
		c-0.3-0.1-0.6-0.4-0.8-0.8c-0.3-0.4-0.4-1-0.5-1.8c-0.1-0.7,0-1.6,0.2-2.5c0.2-0.9,0.6-2,1.2-3.1c0.9-1.5,2.1-2.6,3.8-3.2
		c0.5-0.2,0.9-0.3,1.4-0.3c0.4,0,0.8,0.1,1.1,0.3c0.3,0.2,0.5,0.5,0.6,0.9c0.1,0.4,0.1,0.8-0.1,1.3c-0.1,0.1-0.1,0.2-0.2,0.3
		c-0.1,0.1-0.2,0.2-0.3,0.3c-0.1,0-0.1,0-0.2,0c0-0.1,0-0.2,0-0.5c0-0.2,0-0.5-0.1-0.7c-0.1-0.2-0.3-0.4-0.5-0.6
		c-0.2-0.1-0.5-0.2-0.8-0.1c-0.3,0-0.7,0.2-1.1,0.5c-0.6,0.4-1,1-1.4,1.8c-0.3,0.8-0.5,1.5-0.7,2.3c-0.1,0.8-0.2,1.5-0.2,2.2
		s0,1.1,0.1,1.3c0.1,0.3,0.2,0.5,0.4,0.7s0.4,0.4,0.6,0.4c0.3,0.1,0.6,0.1,0.9,0.1c0.3,0,0.7-0.2,1.1-0.4c0.3-0.2,0.7-0.5,1.2-0.8
		c0.4-0.3,0.9-0.7,1.3-1.2c0.4-0.5,0.8-1,1.2-1.6C130,56.7,130.3,56,130.6,55.3z M121.8,59.9c-0.1-0.5-0.1-0.8-0.1-1
		c-0.1-0.1-0.1-0.2-0.1-0.2v-0.1c0,0-0.1,0.1-0.1,0.2c0,0.1,0,0.2,0,0.4c0,0.2,0,0.4,0.1,0.7c0.1,0.3,0.1,0.5,0.1,0.7
		c0,0.2,0.1,0.3,0.1,0.3c0,0,0,0,0,0v0l0,0c0,0,0,0,0,0c0,0,0-0.1,0-0.2c0-0.1,0-0.2,0-0.3C121.9,60.4,121.9,60.2,121.8,59.9z
		 M121.9,56.8c0,0,0-0.1,0-0.1c0-0.1,0-0.2,0-0.4c0-0.1,0-0.2,0-0.3s0-0.3,0.1-0.4c0.1-0.2,0.2-0.3,0.3-0.5c0.1-0.2,0.2-0.4,0.4-0.7
		c0.1-0.3,0.2-0.5,0.4-0.7c0.1-0.2,0.3-0.4,0.4-0.5l0.6-0.6c0.3-0.3,0.4-0.4,0.5-0.4l0,0c0,0,0,0.1-0.1,0.1c-0.1,0-0.2,0.1-0.4,0.2
		c-0.1,0.1-0.2,0.2-0.3,0.3c-0.1,0.1-0.2,0.2-0.3,0.4c-0.3,0.3-0.6,0.7-0.9,1.2c-0.2,0.3-0.3,0.5-0.3,0.7c-0.1,0.2-0.1,0.4-0.2,0.6
		c-0.1,0.2-0.1,0.3-0.1,0.5c0,0.1,0,0.3,0,0.4c0,0.1,0.1,0.2,0.1,0.2C121.7,56.7,121.8,56.7,121.9,56.8L121.9,56.8L121.9,56.8
		L121.9,56.8z M122.1,61.3c0,0,0-0.1-0.1-0.1l0,0h-0.1c0,0,0,0,0,0c0,0,0,0,0,0l0,0c-0.1,0.1,0,0.1,0,0.1l0,0v0h0.1L122.1,61.3
		L122.1,61.3L122.1,61.3C122.1,61.3,122.1,61.3,122.1,61.3z M122.5,60.7L122.5,60.7L122.5,60.7c-0.1,0-0.1,0,0-0.1l-0.2-0.5
		c0-0.4,0-0.6-0.1-0.6l-0.1-0.2l0,0v0.2c0,0,0,0.1,0,0.2c0,0.1,0,0.3,0,0.5c0.1,0.2,0.1,0.3,0.1,0.4c0,0.1,0.1,0.2,0.1,0.2v0l0,0
		c0,0,0,0,0,0h0v0c0,0.1,0,0.1,0.1,0.1h0.1v0c0,0,0,0,0,0V60.7z"/>
	<path d="M140.5,45.5c0.1-0.1,0.2-0.2,0.3-0.2c-0.1,0.2-0.3,0.5-0.4,0.7c-0.1,0.2-0.2,0.5-0.4,0.7l-0.2,0.3
		c-1.1,0.7-2.3,1.2-3.5,1.3c-1.3,0.2-2.6,0.1-3.9-0.1c0,0.1,0,0.3,0,0.8c0,0.4,0,1,0,1.7c0,0.7,0,1.4,0,2.3c0,0.8,0,1.7,0.1,2.5
		s0.1,1.7,0.1,2.4c0.1,0.8,0.1,1.4,0.3,2c0.1,0.2,0.1,0.5,0.2,0.7c0.1,0.2,0.1,0.5,0.2,0.7c0.2,0.4,0.5,0.7,0.9,0.9
		c0.4,0.2,0.8,0.2,1.3,0c0.4-0.2,0.8-0.4,1.1-0.8c0.3-0.3,0.6-0.7,0.8-1.2c0.6-1,1.1-2.2,1.4-3.4c0.1-0.2,0.1-0.3,0.2-0.3
		c0.1,0,0.2,0.1,0.3,0.2c0.1,0.2,0.2,0.4,0.3,0.6l0,0l-0.6,1.7c-0.2,0.6-0.5,1.3-0.8,1.9c-0.3,0.6-0.7,1.2-1.1,1.7
		c-0.6,0.6-1.2,1-1.9,1.2c-0.7,0.1-1.4,0-2.1-0.5c-0.6-0.3-1-0.7-1.3-1c-0.3-0.3-0.5-0.8-0.7-1.5c-0.3-1.3-0.5-2.4-0.7-3.5
		c-0.1-1.1-0.2-2.1-0.3-3.1c0-1-0.1-2.1,0-3.2c0-1.1,0-2.4,0.1-3.8c0-0.2,0-0.4-0.1-0.5c0-0.1-0.2-0.2-0.4-0.3
		c-0.3-0.1-0.6-0.1-0.9-0.2s-0.6-0.2-0.9-0.2l-0.5-0.1c0.1-0.4,0.5-0.6,1-0.7c0.5-0.1,1.2,0,2.1,0.3l0.2-1.2
		c0.2-0.8,0.4-1.6,0.6-2.3c0.2-0.8,0.4-1.5,0.6-2.3c0.1-0.4,0.3-0.7,0.5-1.1c0.2-0.3,0.5-0.7,0.7-1c0.2-0.3,0.5-0.5,0.9-0.7
		c0.3-0.1,0.7-0.2,1.1-0.2c0.6,0.1,1,0.4,1.1,1.1c0.1,0.5,0.2,1.1,0.1,1.6c-0.1,0.5-0.2,1-0.4,1.5c-0.3,0.9-0.7,1.8-1.2,2.7
		c-0.4,0.9-0.8,1.8-1.2,2.7l-0.3,0.8c0.4,0.1,0.7,0.2,1,0.2c0.3,0.1,0.6,0.1,0.9,0.2c1.1,0.1,2.1-0.1,3.2-0.3
		C138.9,47,139.7,46.4,140.5,45.5z M130.9,58.1c0.1,0,0.1-0.1,0.1-0.2v0l0,0v0h0v0h0c-0.1,0-0.1,0.1-0.1,0.2
		C130.8,58,130.8,58.1,130.9,58.1C130.9,58.1,130.9,58.1,130.9,58.1z M131.2,54.7c0,0.1,0,0.2,0,0.4c0,0.2,0,0.4,0,0.7
		c0,0.6,0.1,1,0.1,1.2c0,0.2,0.1,0.3,0.1,0.3c0,0,0-0.1,0.1-0.3c0-0.2,0-0.6,0-1.2c0-0.3,0-0.5-0.1-0.7c0-0.2,0-0.3,0-0.4
		c0-0.1,0-0.1,0-0.2c0,0,0,0,0,0h0c0,0,0,0,0,0c0,0,0,0.1,0,0.1C131.2,54.7,131.2,54.7,131.2,54.7z M132.3,59.1c0-0.1,0-0.1,0-0.2
		s0-0.1,0-0.3c0-0.2,0-0.5,0-0.9c0-0.4,0-0.9-0.1-1.6c-0.1-0.7-0.1-1.2-0.1-1.5c0-0.4,0-0.6,0-0.8c0-0.2,0-0.3-0.1-0.4
		c0,0,0-0.1,0-0.1c0,0,0,0.1-0.1,0.1c0,0,0,0.2,0,0.4c0,0.2,0,0.5-0.1,0.8c0,0.4,0,0.9,0,1.5c0,0.7,0.1,1.2,0.1,1.6
		c0,0.4,0.1,0.7,0.1,0.9C132.1,59,132.2,59.1,132.3,59.1L132.3,59.1L132.3,59.1L132.3,59.1z M132.3,41c0.1-0.2,0.1-0.3,0-0.4
		s0-0.1,0-0.1h0v0h0v0h0v0l0,0v0.2c0,0,0,0,0,0c0,0,0,0,0,0c0,0.2,0,0.3,0,0.4v0.1l0.1-0.1c0-0.1,0-0.1,0-0.2
		C132.3,41.2,132.3,41.1,132.3,41z M132.4,40.4c0-0.1,0-0.2-0.1-0.2h-0.1v0h0c0,0,0,0,0,0c0,0.1,0,0.1,0,0.2l0,0h0.1L132.4,40.4
		L132.4,40.4L132.4,40.4z M132.6,39.9c0.1-0.1,0.2-0.4,0.5-0.9c0.1-0.2,0.2-0.4,0.3-0.5c0.1-0.1,0.2-0.2,0.2-0.3c0,0,0,0,0-0.1
		c0,0,0,0,0-0.1c0,0,0,0,0,0h0v0h0c0,0,0,0,0,0h0c0,0-0.1,0-0.1,0c-0.1,0.1-0.2,0.1-0.3,0.2c-0.1,0.1-0.2,0.3-0.4,0.5
		c-0.2,0.3-0.3,0.5-0.3,0.6c-0.1,0.2-0.1,0.3-0.1,0.4c0,0.1,0,0.2,0,0.2c0,0,0,0.1,0,0.1C132.5,40.1,132.5,40,132.6,39.9z M133,42.7
		c-0.1,0.4-0.1,0.9-0.2,1.4c-0.1,0.5-0.2,0.9-0.2,1.4l0.3,0.1c0.3-0.8,0.6-1.5,1-2.3c0.4-0.8,0.7-1.5,1-2.3c0.1-0.3,0.2-0.6,0.3-0.9
		c0-0.3,0.1-0.6,0.1-0.9c0-0.3,0-0.6-0.1-0.8c-0.1-0.3-0.3-0.4-0.6-0.5c-0.3-0.1-0.6,0-0.7,0.3c-0.1,0.2-0.2,0.5-0.3,0.8
		c-0.1,0.6-0.3,1.3-0.4,1.9C133.2,41.4,133.1,42,133,42.7z"/>
	<path d="M168.9,55.4c0.2-0.1,0.3,0,0.4,0.1c0.1,0.1,0.1,0.3,0,0.6c-0.1,0.3-0.1,0.7-0.3,1.3c-0.1,0.5-0.3,1.2-0.5,2.1
		c-0.3,0.9-0.5,1.9-0.9,2.8c-0.3,0.9-0.7,1.8-1.3,2.6c-0.4,0.7-0.9,1.3-1.5,1.7c-0.8,0.6-1.5,0.5-2.2-0.3c-0.5-0.6-0.8-1.2-1-1.9
		c-0.2-0.7-0.4-1.4-0.5-2.1c-0.3-1.4-0.4-2.9-0.2-4.3c0.1-1.4,0.4-2.8,0.6-4.2c0.1-0.2,0.1-0.5,0.1-0.7c0-0.3,0-0.5,0-0.8
		c0-0.2-0.1-0.4-0.3-0.5c-0.1-0.1-0.1,0-0.3,0c-0.1,0.1-0.2,0.1-0.3,0.2c-0.4,0.5-0.7,0.9-1,1.4s-0.6,0.9-0.9,1.5
		c-0.4,0.7-0.7,1.3-0.9,2c-0.3,0.7-0.5,1.3-0.8,2c-0.1,0.1-0.1,0.3-0.1,0.5c0,0.2,0,0.3,0,0.5c0,0.2,0,0.5,0,0.7
		c0,0.3-0.1,0.4-0.5,0.5c-0.4,0.1-0.8,0.1-1.2,0c-0.4-0.1-0.6-0.4-0.7-0.7c-0.1-0.2-0.1-0.6-0.1-1.3c0-0.7,0-1.4,0-2.2
		c0-0.8,0-1.6,0.1-2.3c0-0.8,0.1-1.3,0.1-1.8c0-0.1,0-0.2-0.1-0.3c0-0.1,0-0.2,0-0.2c0-0.2-0.1-0.4-0.3-0.5c-0.1-0.1-0.1,0-0.3,0
		c-0.1,0.1-0.2,0.1-0.3,0.2c-0.4,0.5-0.7,0.9-1,1.4c-0.3,0.5-0.6,0.9-0.9,1.5c-0.4,0.7-0.7,1.3-0.9,2c-0.3,0.7-0.5,1.3-0.8,2
		c-0.1,0.1-0.1,0.3-0.1,0.5c0,0.2,0,0.3,0,0.5c0,0.2,0,0.5,0,0.7c0,0.3-0.1,0.4-0.5,0.5c-0.4,0.1-0.8,0.1-1.2,0
		c-0.4-0.1-0.6-0.4-0.7-0.7c-0.1-0.2-0.1-0.6-0.1-1.3c0-0.7,0-1.5,0-2.3c0-0.8,0.1-1.6,0.1-2.4c0-0.8,0.1-1.3,0.1-1.7
		c0.1-0.4,0.2-0.7,0.3-0.8c0.2-0.1,0.5-0.1,0.9,0.2c0.3,0.2,0.5,0.3,0.7,0.5c0.2,0.1,0.3,0.3,0.4,0.5c0.1,0.2,0.1,0.4,0.1,0.6
		c0,0.2,0,0.5-0.1,0.8c-0.1,0.4-0.1,0.9-0.1,1.3c0,0.4-0.1,0.8-0.1,1.3c0,0,0,0.1,0.1,0.3c0.1-0.3,0.3-0.6,0.4-0.9
		c0.1-0.3,0.3-0.6,0.4-0.8c0.3-0.7,0.7-1.4,1.1-2c0.4-0.6,0.9-1.2,1.4-1.8c0.4-0.4,0.8-0.6,1.4-0.5c0.5,0.1,1,0.3,1.5,0.6
		c0.5,0.4,0.8,0.8,0.9,1.3c0,0.1,0,0.1,0,0.2c0,0.1,0,0.3,0,0.5c0,0.6-0.1,1.1-0.1,1.7c-0.1,0.6-0.1,1.1-0.2,1.7l0,0.1
		c0.1-0.3,0.3-0.6,0.4-0.9c0.1-0.3,0.3-0.6,0.4-0.8c0.3-0.7,0.7-1.4,1.1-2c0.4-0.6,0.9-1.2,1.4-1.8c0.4-0.4,0.8-0.6,1.4-0.5
		c0.3,0,0.6,0.1,0.9,0.3s0.6,0.3,0.8,0.6c0.2,0.2,0.4,0.5,0.6,0.8c0.1,0.3,0.2,0.6,0.2,0.9c-0.1,1-0.1,2-0.2,3.1
		c-0.1,1-0.2,2-0.3,3.1c-0.1,0.7-0.1,1.5-0.2,2.2c0,0.7,0,1.5,0.3,2.2l0.1,0.5c0.2,0.4,0.4,0.6,0.6,0.7c0.3,0.1,0.5,0,0.8-0.3
		c0.4-0.5,0.8-1,1-1.6c0.2-0.6,0.5-1.3,0.8-2.2c0.3-0.9,0.5-1.8,0.8-2.6c0.2-0.8,0.5-1.6,0.6-2.2C168.7,55.7,168.8,55.4,168.9,55.4z
		 M148.4,57.3c0.1,0,0.1-0.1,0.1-0.2c0,0,0,0,0-0.1c0,0,0,0,0-0.1l0,0h0v0h-0.1v0.1C148.3,57.2,148.3,57.2,148.4,57.3L148.4,57.3z
		 M149.1,55.4c0-0.3,0-0.5,0-0.7c0-0.2,0-0.3,0-0.4c0-0.1,0-0.2-0.1-0.2c0,0,0,0,0,0c0,0,0,0,0,0.1c0,0,0,0,0,0.1
		c0,0.1-0.1,0.2-0.1,0.4c0,0.2-0.1,0.4-0.1,0.7c-0.1,0.6-0.1,1,0,1.2c0,0.2,0.1,0.3,0.1,0.3c0-0.1,0.1-0.2,0.1-0.3
		c0-0.1,0-0.2,0.1-0.4C149,56,149,55.7,149.1,55.4z M149.9,53.5c0-0.1,0-0.1,0-0.2c0-0.1,0-0.1,0-0.2v-0.1c0,0,0,0-0.1,0.1
		c0,0,0,0.2-0.1,0.4c0,0.2-0.1,0.5-0.1,0.8c-0.1,0.4-0.1,0.9-0.2,1.5c-0.1,0.7-0.1,1.2-0.1,1.6c0,0.4,0,0.7,0,0.9c0,0.1,0,0.2,0,0.3
		c0,0.1,0,0.1,0,0.2l0,0h0v-0.5l0.2-2.5L149.9,53.5z M155.4,57.9c0,0,0.1-0.1,0.1-0.3c0-0.2,0.1-0.6,0.1-1.2c0-0.3,0-0.6,0-0.7
		c0-0.2,0-0.3,0-0.4c0-0.1,0-0.1,0-0.2c0,0,0,0,0,0c-0.1,0-0.1,0.1-0.1,0.2c0,0.1,0,0.2-0.1,0.4c0,0.2,0,0.4,0,0.7
		c0,0.7,0,1.1,0,1.2C155.4,57.8,155.4,57.9,155.4,57.9z M155.5,58.4C155.5,58.4,155.5,58.4,155.5,58.4c0.1-0.1,0.1-0.1,0.1-0.2
		l0-0.1v0h0h0h0c0,0,0,0,0,0.1S155.4,58.3,155.5,58.4C155.4,58.4,155.4,58.4,155.5,58.4L155.5,58.4z M156.3,56.9c0-0.7,0-1.2,0-1.6
		c0-0.4,0-0.7-0.1-0.9c0-0.2,0-0.3,0-0.4c0-0.1,0-0.1-0.1-0.1c0,0,0,0,0,0.1s0,0.1,0,0.2c0,0.1,0,0.1,0,0.2c0,0.2,0,0.5-0.1,0.9
		c0,0.4,0,0.9,0,1.6c0,0.7,0,1.2,0,1.6c0,0.4,0,0.7,0.1,0.9c0.1,0.2,0.1,0.4,0.1,0.5c0,0.1,0,0.1,0,0.2c0,0,0-0.1,0-0.2s0-0.2,0-0.5
		V56.9z M161.9,58.8c0-0.1,0-0.2-0.1-0.2h0l0,0v0h0v0.1c0,0.1,0,0.2,0,0.2c0,0,0,0,0,0.1h0c0,0,0,0,0-0.1
		C161.9,58.9,161.9,58.9,161.9,58.8z M162.2,56.6c0.1-0.4,0.1-0.7,0.1-0.9s0-0.4,0-0.5c0-0.1,0-0.2,0-0.2c0,0,0,0,0-0.1
		c-0.1,0-0.1,0.1-0.1,0.3c-0.1,0.2-0.2,0.6-0.3,1.3c-0.1,0.7-0.1,1.2-0.1,1.4c0,0.2,0,0.3,0,0.4h0c0,0,0-0.1,0.1-0.3
		C162,57.9,162.1,57.4,162.2,56.6z M163.2,53.8v-0.1V53.8c-0.1,0-0.1,0.1-0.1,0.1c0,0.1-0.1,0.1-0.1,0.2c-0.1,0.2-0.1,0.6-0.2,1
		c-0.1,0.5-0.2,1.1-0.3,1.9c-0.1,0.8-0.1,1.5-0.1,2c0,0.5,0,0.9,0,1.2c0,0.3,0.1,0.4,0.1,0.5v0h0v-0.5c0-0.3,0.1-0.7,0.1-1.1
		c0-0.5,0.1-1.1,0.2-1.9c0.1-0.8,0.1-1.5,0.2-1.9s0.1-0.8,0.2-1V53.8z M162.5,60.8L162.5,60.8L162.5,60.8L162.5,60.8z"/>
	<path d="M178.4,54.7c0,0.1,0.1,0.2,0.1,0.3c0,0.1,0,0.2,0,0.3c-0.3,1.1-0.7,2.1-1.2,3.1c-0.5,1-1.1,1.9-2,2.6
		c-1.6,1.3-3.3,1.7-5.3,1.1c-0.8-0.2-1.4-0.7-1.8-1.3c-0.4-0.7-0.6-1.4-0.8-2.2c-0.1-0.8-0.1-1.7,0-2.5c0.1-0.9,0.3-1.7,0.6-2.3
		c0.5-1.2,1.2-2,2.1-2.3c0.9-0.3,1.9-0.4,3-0.1c0.6,0.2,1,0.7,1.2,1.4c0.1,0.5,0,1-0.1,1.4c-0.1,0.5-0.4,0.9-0.6,1.3
		c-0.3,0.4-0.6,0.7-1,1c-0.4,0.3-0.8,0.4-1.3,0.5c-0.2,0-0.3,0-0.5,0.1c-0.1,0.5-0.1,0.9-0.1,1.4c0,0.5,0.1,0.9,0.3,1.3
		s0.4,0.7,0.6,1c0.3,0.3,0.6,0.4,1,0.5c0.7,0.2,1.3,0.1,1.9-0.4c0.6-0.4,1.1-1,1.5-1.6c0.4-0.6,0.7-1.3,1-1.9c0.3-0.7,0.6-1.4,1-2
		c0.1-0.1,0.1-0.2,0.2-0.3C178.2,54.9,178.3,54.9,178.4,54.7z M168.8,54.4L168.8,54.4C168.8,54.4,168.7,54.4,168.8,54.4l-0.2,0.3
		c-0.1,0.1-0.1,0.3-0.1,0.6c0,0.3-0.1,0.6-0.1,1.1c0,0.4,0,0.8,0,1.1c0,0.3,0.1,0.5,0.1,0.7c0,0.2,0,0.3,0.1,0.3c0,0.1,0,0.1,0,0.1
		h0c0,0,0-0.1,0-0.1c0-0.1,0-0.2,0-0.3c0-0.2,0-0.4,0-0.7c0-0.3,0-0.6,0.1-1.1c0-0.4,0-0.8,0.1-1c0-0.3,0-0.4,0-0.6V54.4z
		 M168.7,59.1c0.1,0,0.1-0.1,0.1-0.2v-0.1h0v-0.1h-0.1l0,0c-0.1,0.1-0.1,0.1,0,0.2C168.5,59,168.6,59,168.7,59.1
		C168.6,59.1,168.6,59.1,168.7,59.1z M169.5,59.2c-0.1-0.6-0.1-1.3-0.1-2.3c0-0.5,0.1-0.9,0.1-1.2c0-0.4,0.1-0.7,0.1-1
		c0.1-0.5,0.2-0.9,0.2-1.1c0.1-0.3,0.1-0.4,0.2-0.4c0-0.1,0-0.1,0-0.1h0v0h0v0c-0.1,0-0.2,0.2-0.3,0.4c-0.1,0.3-0.2,0.6-0.3,1.2
		c-0.1,0.5-0.2,1.3-0.2,2.2c0,0.5,0,0.9,0,1.3c0,0.4,0.1,0.7,0.1,1c0.1,0.5,0.2,0.9,0.3,1.3l0.3,0.5l0.1,0.1c0,0,0-0.1-0.1-0.2
		c0-0.1-0.1-0.3-0.2-0.6C169.7,60.2,169.6,59.8,169.5,59.2z M171.5,52.6c-0.3,0.6-0.6,1.1-0.7,1.7c-0.1,0.6-0.2,1.2-0.3,1.9
		c0.5,0,0.9-0.1,1.3-0.2c0.4-0.2,0.7-0.4,1-0.7c0.3-0.3,0.4-0.7,0.5-1.1c0.1-0.4,0.1-0.8,0-1.2c-0.1-0.2-0.2-0.4-0.3-0.5
		c-0.2-0.2-0.3-0.3-0.5-0.4c-0.2-0.1-0.4-0.1-0.6,0C171.7,52.2,171.6,52.3,171.5,52.6z"/>
	<path d="M189.1,63.6c0-0.1,0.1-0.1,0.2-0.2c0.1,0,0.2,0,0.2,0c0.1,0.1,0.1,0.1,0.1,0.3c0,0.1,0,0.3-0.2,0.6c-0.5,0.7-1,1-1.6,1
		c-0.6-0.1-1.2-0.3-1.7-0.7c-0.4-0.4-0.8-1-1-1.6c-0.2-0.6-0.4-1.3-0.6-1.9c-0.2-0.8-0.3-1.8-0.4-3c-0.1-1.2-0.1-2.5,0-3.8
		c0-1.4,0.1-2.7,0.2-4.1c0.1-1.4,0.2-2.7,0.4-3.9c0.1-1.2,0.3-2.3,0.4-3.3c0.1-0.9,0.3-1.7,0.3-2.2c0.1-0.4,0.3-0.8,0.4-1.3
		c0.2-0.5,0.4-1,0.6-1.4c0.2-0.4,0.5-0.8,0.8-1c0.3-0.3,0.5-0.3,0.8-0.2c0.2,0.1,0.4,0.3,0.5,0.8c0.1,0.5,0.1,1,0,1.6
		c-0.4,1.2-0.6,2.3-0.8,3.5c-0.1,1.1-0.3,2.3-0.5,3.5c-0.2,1.1-0.4,2.3-0.5,3.7c-0.1,1.4-0.1,2.8-0.1,4.3c0,1.5,0.1,2.9,0.2,4.3
		c0.1,1.4,0.3,2.7,0.5,3.7c0,0.2,0.1,0.5,0.1,0.7c0.1,0.2,0.1,0.5,0.3,0.7c0.2,0.3,0.3,0.4,0.6,0.4C188.7,64,188.9,63.9,189.1,63.6z
		 M184.9,53.4c0,0.1,0,0.2,0,0.3c0,0.2,0,0.4,0,0.7c0,0.3,0,0.7,0,1.2c0,1.1,0.1,1.8,0.2,2.1c0.1,0.3,0.2,0.5,0.2,0.5
		c0,0,0-0.1,0-0.1c0-0.1,0-0.2,0-0.4c0-0.2,0-0.4,0-0.8c0-0.3,0-0.8,0-1.3c-0.1-0.5-0.1-0.9-0.1-1.2c0-0.3,0-0.5,0-0.7
		C185,53.5,184.9,53.4,184.9,53.4C184.9,53.4,184.9,53.3,184.9,53.4L184.9,53.4z M185.1,58.9C185.1,58.9,185.1,58.9,185.1,58.9
		l0-0.2c0,0,0-0.1,0-0.1v0v0l0,0l0,0c0-0.1-0.1-0.1-0.1-0.1h0c-0.1,0-0.1,0-0.1,0s0,0.1,0.1,0.2C185,58.9,185,58.9,185.1,58.9z
		 M185.6,52.1c-0.1,0.4-0.1,0.9-0.1,1.5c0,0.7,0,1.6,0.1,2.7c0.1,1.2,0.2,2.2,0.2,2.9c0.1,0.7,0.1,1.3,0.2,1.7
		c0,0.2,0.1,0.3,0.1,0.5c0,0.1,0.1,0.2,0.1,0.3c0,0,0,0,0,0v0c0,0,0.1,0,0.1,0v0v-0.1c0-0.1,0-0.1,0-0.1c0-0.1,0-0.4-0.1-0.8
		l-0.3-4.5c-0.1-1.2-0.1-2.1-0.1-2.7c0-0.6,0-1.1,0-1.5c0-0.3,0-0.5-0.1-0.6l0-0.1V52.1z M185.9,45c0,0.1,0,0.1,0,0.1c0,0,0,0,0.1,0
		c0,0,0.1,0,0.1,0c0,0,0.1,0,0.1-0.1c0-0.1,0-0.1-0.1-0.2c0,0-0.1,0-0.1,0h0C185.9,44.9,185.9,44.9,185.9,45z M186,43.1
		c-0.1,0.7-0.1,1.1-0.1,1.3c0,0.2,0,0.3,0.1,0.3c0,0.1,0.1,0,0.1-0.3c0-0.2,0.1-0.7,0.2-1.4l0.1-1.2c0-0.1,0-0.1,0-0.1
		c0,0,0,0,0-0.1c0,0,0-0.1,0-0.1v0c0,0,0,0.1,0,0.1c-0.1,0.1-0.1,0.1-0.1,0.2c0,0.1,0,0.2,0,0.4C186.1,42.5,186.1,42.8,186,43.1z
		 M189,69.4c0,0.3-0.1,0.6-0.3,1c-0.2,0.4-0.6,0.5-1.2,0.5c-0.4,0-0.7-0.1-1-0.2c-0.2-0.1-0.4-0.3-0.5-0.6c-0.1-0.2-0.1-0.5-0.1-0.8
		c0-0.3,0.1-0.6,0.2-0.9c0.2-0.5,0.5-0.9,0.8-1c0.3-0.1,0.6-0.1,0.9,0.1c0.3,0.2,0.5,0.4,0.7,0.8C188.9,68.7,189,69,189,69.4z
		 M186.5,45.4c-0.1,0.4-0.1,0.8-0.1,1.1c-0.1,0.4-0.1,0.6,0,0.6v0c0,0,0.1-0.3,0.2-0.7c0-0.1,0.1-0.3,0.1-0.4c0-0.2,0.1-0.4,0.1-0.6
		c0.1-0.3,0.1-0.5,0.1-0.8c0-0.3,0-0.6,0.1-0.9c0.1-0.7,0.1-1.3,0.2-1.8c0-0.4,0-0.8,0-1v-0.4c0-0.1,0-0.1,0-0.1
		c-0.1-0.1-0.1,0.1-0.2,0.4c-0.1,0.3-0.1,0.6-0.2,1c-0.1,0.4-0.1,1-0.2,1.7c-0.1,0.4-0.1,0.8-0.1,1
		C186.6,44.9,186.6,45.2,186.5,45.4z M186.6,69.7c0.1,0.1,0.1,0.2,0.2,0.3c0.1,0.1,0.1,0.1,0.1,0.1l0,0.1h0.1l0,0v0l0,0v-0.2
		c0,0,0-0.1,0-0.1c0,0,0-0.1,0-0.2c-0.1-0.2-0.1-0.3-0.1-0.3s0-0.1,0-0.2l-0.1,0l-0.1-0.1h0h0l0,0.1c0,0-0.1,0.1-0.1,0.1
		C186.5,69.4,186.5,69.5,186.6,69.7z M186.6,68.8C186.6,68.7,186.6,68.7,186.6,68.8L186.6,68.8l0.1,0.2l0.1,0c0.1,0,0.2,0,0.2-0.1
		c0.1-0.1,0-0.1,0-0.2c0,0,0,0,0,0h0l0,0h0C186.7,68.7,186.7,68.7,186.6,68.8C186.6,68.7,186.6,68.7,186.6,68.8z M186.8,69.1
		C186.8,69.1,186.8,69.1,186.8,69.1c0.1,0,0.2-0.1,0.2-0.1l-0.1,0c0,0-0.1,0-0.1,0h-0.1c-0.1,0-0.1,0,0,0.1L186.8,69.1z"/>
</g>
<path d="M333.8,121.3c-7.9-6.2-15.6-5.9-16-5.9l-0.4,0l-0.2,0.3c-0.2,0.1-0.8,0-1.4,0c-0.6-0.8-1.4-1.2-2.2-1.3
	c-0.7-0.1-1.4,0.2-1.8,0.4c-4.2-2.7-14.4-5.8-14.9-5.9l-1.2-0.3l0,1.2c0.1,2.8-6.6,14-11.1,20.9l-0.1,0.2l0,0.2
	c-0.1,2.1-3.2,7.8-4.5,10c-2.1,2.2-2.1,7.5-2.1,7.7h1.8c0-1.1,0.2-5.2,1.6-6.6l0.1-0.2c0.5-0.8,4.4-7.5,4.7-10.6
	c1.5-2.3,9.9-15.4,11.1-20.6c2.8,0.9,11,3.6,13.9,5.7l0.6,0.4l0.5-0.5c0,0,0.5-0.4,1-0.4c0.4,0,0.8,0.3,1.1,0.9l0.2,0.3l0.3,0.1
	c0.8,0.2,2.2,0.4,3-0.1c1.5,0,9.2,0.7,15.4,6.2c0,0,0.1,0.1,0.2,0.2c0,0,0,0,0,0v0c1.5,1.2,9.9,8.3,10.8,25.2l1.8,0
	C345.5,129.3,334.3,121.6,333.8,121.3z"/>
<path d="M104.6,16.3c11.5-0.2,19.5-0.5,27.5-0.5c9,0,18.1,0.2,27.1,0.5c9.7,0.4,19.5,0.9,29.2,1.5c3.8,0.3,7.7,0.8,11.5,1.6
	c4.3,0.9,6.7,3.9,6.9,8.2c0.2,5.2,0.1,10.5,0,15.8c0,3-0.2,6-0.4,9c-0.5,7.2-1.1,14.4-1.5,21.6c-0.1,1.9-1,3.2-2.4,4.3
	c-3.4,2.6-7.2,4.2-11.6,4.3c-2.6,0.1-5.2,0.1-7.7,0.1c-0.5,0-1.1,0.2-1.3,0.5c-0.2,0.2,0.1,0.9,0.4,1.2c1.8,3.1,3.7,6.2,5.6,9.3
	c1,1.7,0.8,2-1.1,2.2c-4.8,0.6-9.6,0.6-14.2-1c-4.7-1.6-8-4.6-9.4-9.4c-0.5-1.7-1.2-2.3-3.1-2.3c-24.3,0.1-48.6,0.1-72.9,0
	c-6.3,0-12.6-0.3-18.9-0.6c-2-0.1-4-0.7-5.8-1.4c-3.1-1.2-4.7-3.7-5.2-6.8c-0.6-4.2-1.1-8.5-1.3-12.8c-0.3-7.4,0-14.8,1.4-22
	c0.8-4.3,1.8-8.6,3.1-12.7c1.4-4.6,5.2-7.1,9.7-7.9c4.2-0.8,8.6-1.1,12.9-1.3C91.2,17,99.6,16.6,104.6,16.3z M181.9,94.4
	c0.1-0.2,0.2-0.4,0.3-0.6c-0.4-0.7-0.8-1.4-1.2-2.1c-1-1.9-2.1-3.8-2.9-5.8c-0.9-2.3,0.1-4.1,2.5-4.7c1.5-0.4,3.1-0.6,4.7-0.7
	c2.8-0.2,5.7-0.3,8.5-0.5c4.1-0.3,6.4-2.5,6.9-6.6c0.1-0.6,0.1-1.2,0.2-1.8c0.4-9,0.9-18,1.2-27.1c0.2-5.4,0.4-10.8,0.3-16.2
	c0-4.3-2.1-6.8-6.3-7.9c-2.3-0.6-4.8-1-7.2-1c-12.8-0.3-25.7-0.5-38.5-0.5c-13.4,0-26.8,0.2-40.2,0.3c-9.9,0.1-19.8,0-29.7,0.1
	c-3.2,0-6.4,0.2-9.5,0.7c-4.1,0.6-7.6,2.6-8.6,7c-1.1,4.8-1.7,9.6-2.4,14.4c-0.5,3.8-0.9,7.7-1,11.5c-0.2,6.3-0.4,12.7-0.2,19
	c0.2,5.7,3.9,8,8.6,8.6c4.4,0.6,8.9,0.7,13.4,0.8c27.1,0.1,54.3,0,81.4,0c2.5,0,2.5,0,2.9,2.4c0.5,3,1.8,5.6,4.4,7.2
	c1.9,1.2,4.2,2,6.4,2.6C177.9,94.2,179.9,94.2,181.9,94.4z"/>
</svg>
