<?xml version="1.0" encoding="utf-8"?>
<!-- Generator: Adobe Illustrator 22.1.0, SVG Export Plug-In . SVG Version: 6.00 Build 0)  -->
<svg version="1.1" id="Layer_1" xmlns="http://www.w3.org/2000/svg" xmlns:xlink="http://www.w3.org/1999/xlink" x="0px" y="0px"
	 viewBox="0 0 161.4 161.4" style="enable-background:new 0 0 161.4 161.4;" xml:space="preserve">
<g>
	<path d="M80.7,0C36.2,0,0,36.2,0,80.7s36.2,80.7,80.7,80.7s80.7-36.2,80.7-80.7S125.2,0,80.7,0z M80.7,155.5
		c-41.3,0-74.9-33.6-74.9-74.9S39.4,5.8,80.7,5.8s74.9,33.6,74.9,74.9S122,155.5,80.7,155.5z"/>
	<path d="M80.7,17.4c-34.9,0-63.3,28.4-63.3,63.3S45.8,144,80.7,144S144,115.6,144,80.7S115.6,17.4,80.7,17.4z M80.7,23.2
		c14.1,0,27,5.1,37,13.6h-74C53.7,28.3,66.6,23.2,80.7,23.2z M39.5,112.2v0.7v7.8c-10.1-10.4-16.3-24.5-16.3-40
		c0-6.3,1-12.4,2.9-18.1h42.7c12,0,21.7,9.7,21.7,21.7c0,12-9.7,21.7-21.7,21.7H39.5V112.2z M104.8,132.8
		c-7.3,3.4-15.5,5.3-24.1,5.3c-12.8,0-24.7-4.2-34.3-11.4v-13.8h22.5c15.8,0,28.6-12.8,28.6-28.6c0-15.8-12.8-28.6-28.6-28.6H28.9
		c2.1-4.3,4.7-8.3,7.7-11.9h68.2V132.8z M111.7,129V43.8h13.1c8.4,10,13.4,22.8,13.4,36.8C138.1,101,127.6,118.8,111.7,129z"/>
</g>
</svg>
